<?xml version="1.0" encoding="utf-8"?>
<!-- Generator: Adobe Illustrator 25.0.0, SVG Export Plug-In . SVG Version: 6.00 Build 0)  -->
<svg version="1.1" id="Capa_1" xmlns="http://www.w3.org/2000/svg" xmlns:xlink="http://www.w3.org/1999/xlink" x="0px" y="0px"
	 viewBox="0 0 88.14 98.84" style="enable-background:new 0 0 88.14 98.84;" xml:space="preserve">
<style type="text/css">
	.st0{fill:none;stroke:url(#SVGID_1_);stroke-width:2;stroke-miterlimit:10;}
	.st1{fill:url(#SVGID_2_);}
	.st2{fill:url(#SVGID_3_);}
	.st3{stroke:#000000;stroke-miterlimit:10;}
	.st4{fill:url(#SVGID_4_);}
</style>
<g>
	<linearGradient id="SVGID_1_" gradientUnits="userSpaceOnUse" x1="44.5707" y1="95.4939" x2="44.5707" y2="6.0786">
		<stop  offset="0" style="stop-color:#103240"/>
		<stop  offset="1" style="stop-color:#05090C"/>
	</linearGradient>
	<path class="st0" d="M44.58,7.17L7.68,23.33v22.12c0,15.6,7.49,30.01,19.65,37.81l17.24,11.05l17.23-11.05
		c12.16-7.8,19.65-22.21,19.65-37.8V23.33L44.58,7.17z"/>
	<g>
		<linearGradient id="SVGID_2_" gradientUnits="userSpaceOnUse" x1="44.5707" y1="72.2137" x2="71.6806" y2="72.2137">
			<stop  offset="0" style="stop-color:#103240"/>
			<stop  offset="1" style="stop-color:#05090C"/>
		</linearGradient>
		<path class="st1" d="M71.68,63.34c-2.83,5.59-6.98,10.35-12.15,13.67l-14.96,9.59V74.53l9.47-6.07c3.91-2.52,7.03-6.25,9.01-10.64
			L71.68,63.34z"/>
		<linearGradient id="SVGID_3_" gradientUnits="userSpaceOnUse" x1="44.5707" y1="20.7981" x2="63.6492" y2="20.7981">
			<stop  offset="0" style="stop-color:#103240"/>
			<stop  offset="1" style="stop-color:#05090C"/>
		</linearGradient>
		<polygon class="st2" points="63.65,21.61 53.64,28.34 44.57,24.36 44.57,13.26 		"/>
	</g>
	<path class="st3" d="M44.57,34.42"/>
	<linearGradient id="SVGID_4_" gradientUnits="userSpaceOnUse" x1="13.3434" y1="49.9328" x2="44.5707" y2="49.9328">
		<stop  offset="0" style="stop-color:#103240"/>
		<stop  offset="1" style="stop-color:#05090C"/>
	</linearGradient>
	<path class="st4" d="M23.51,33.59v12.35c0,9.3,4.44,17.93,11.59,22.52l9.47,6.07v12.08l-14.96-9.59
		c-10.03-6.44-16.27-18.33-16.27-31.07V26.95l0.95-0.42l30.28-13.27v11.1l-19.99,8.78h-0.02L23.51,33.59z"/>
</g>
</svg>
